# xmcd
#
# Track frame offsets:
#	150
#	14890
#	27676
#	44978
#	57951
#	72543
#	87448
#	102109
#	121284
#	142762
#	154288
#	169479
#	186474
#	199906
#
# Disc length: 2854 seconds
#
# Revision: 0
# Processed by: cddbd v1.5.2PL0 Copyright (c) Steve Scherf et al.
# Submitted via: audiograbber 1.83.01
#
DISCID=de0b240e
DTITLE=01 - Mr Music Country 2016-02
DYEAR=1900
DGENRE=Country
TTITLE0=Carrie Underwood - Smoke break
TTITLE1=Old Dominion - Shut me up
TTITLE2=Cam - Burning house
TTITLE3=Tyler Farr - Better in boots
TTITLE4=Logan Mize - El camino
TTITLE5=Pam Tillis - In between dances
TTITLE6=Vince Gill - Let's do something
TTITLE7=Rick Trevino - Just enough rope (Billingual)
TTITLE8=Sara Evans - I could not ask for more
TTITLE9=Johnny Cash - Rock and roll shoes
TTITLE10=Rodney Crowell - If looks could kill
TTITLE11=Martina McBride - Where I used to have a heart
TTITLE12=Josh Thompson - Comin' around
TTITLE13=Chris Janson - Where my girls at
EXTD=
EXTT0=
EXTT1=
EXTT2=
EXTT3=
EXTT4=
EXTT5=
EXTT6=
EXTT7=
EXTT8=
EXTT9=
EXTT10=
EXTT11=
EXTT12=
EXTT13=
PLAYORDER=
